<?xml version="1.0" encoding="UTF-8"?>
<svg id="Calque_2" data-name="Calque 2" xmlns="http://www.w3.org/2000/svg" viewBox="0 0 804.36 195.39">
  <defs>
    <style>
      .cls-1 {
        letter-spacing: -.05em;
      }

      .cls-2 {
        letter-spacing: -.04em;
      }

      .cls-3 {
        fill: #fff;
        font-family: Lufga-Medium, Lufga;
        font-size: 203.96px;
        font-weight: 500;
      }

      .cls-4 {
        fill: #00ffaf;
      }
    </style>
  </defs>
  <g id="Calque_1-2" data-name="Calque 1">
    <g>
      <g>
        <path class="cls-4" d="M78.14,174.16C35.05,174.16,0,139.11,0,96.02S35.05,17.88,78.14,17.88s78.14,35.05,78.14,78.14-35.05,78.14-78.14,78.14ZM78.14,31.85c-35.38,0-64.17,28.79-64.17,64.17s28.79,64.17,64.17,64.17,64.17-28.79,64.17-64.17S113.53,31.85,78.14,31.85Z"/>
        <g>
          <path class="cls-4" d="M103.3,59.92c4.62,5.06,7.98,11.28,10.07,18.65,2.09,7.37,2.75,15.35,1.98,23.93-.77,7.7-2.61,14.52-5.53,20.47-2.92,5.94-6.47,10.89-10.65,14.85-4.18,3.96-8.83,6.96-13.95,9-5.12,2.03-10.21,3.05-15.27,3.05h-.17c-4.84,0-9.32-.88-13.45-2.64-4.13-1.76-7.62-4.35-10.48-7.76-1.21-1.43-2.42-3.22-3.63-5.36-1.21-2.15-2.23-4.68-3.05-7.59-.83-2.91-1.35-6.3-1.57-10.15-.22-3.85.05-8.14.83-12.87l14.03,1.98c-.88,5.61-.96,10.51-.25,14.69.71,4.18,2.17,7.54,4.37,10.07,1.98,2.31,4.18,3.8,6.6,4.46,2.42.66,4.62.99,6.6.99,3.52,0,7.04-.74,10.56-2.23,3.52-1.49,6.71-3.66,9.57-6.52,2.86-2.86,5.31-6.46,7.34-10.81,2.03-4.35,3.33-9.32,3.88-14.94.66-6.49.25-12.54-1.24-18.16s-3.82-10.18-7.01-13.7c-4.51-4.84-10.45-7.26-17.82-7.26-5.61,0-10.1,1.07-13.45,3.22-3.36,2.15-5.64,4.48-6.85,7.01-.22.44-.47,1.05-.74,1.82-.28.77-.41,1.57-.41,2.39s.11,1.71.33,2.64c.22.94.71,1.9,1.49,2.89.44.66,1.35,1.51,2.72,2.56,1.37,1.05,3.44,1.93,6.19,2.64,2.75.72,6.3,1.13,10.65,1.24,4.35.11,9.76-.5,16.26-1.82l2.97,13.86c-7.92,1.65-14.77,2.37-20.55,2.15-5.78-.22-10.65-.93-14.61-2.15-3.96-1.21-7.13-2.72-9.49-4.54-2.37-1.82-4.15-3.55-5.36-5.2-2.75-3.52-4.32-7.48-4.7-11.88-.39-4.4.47-8.69,2.56-12.87,2.75-5.61,7.07-10.04,12.96-13.29,5.88-3.24,12.57-4.87,20.05-4.87,11.66,0,21.07,4.02,28.22,12.05Z"/>
          <path class="cls-4" d="M75.14,102.67l-.34-13.97c22.91-.56,42.21-10.77,54.37-19.23,16.26-11.31,27.19-24.52,32-33.11l12.19,6.83c-13.46,24.02-52.84,58.36-98.22,59.48Z"/>
        </g>
      </g>
      <text class="cls-3" transform="translate(219.45 146.89)"><tspan class="cls-2" x="0" y="0">obe</tspan><tspan class="cls-1" x="355.95" y="0">c</tspan><tspan class="cls-2" x="461.82" y="0">e</tspan></text>
    </g>
  </g>
</svg>